<?xml version="1.0" ?><svg enable-background="new 0 0 24 24" id="Layer_1" version="1.1" viewBox="0 0 24 24" xml:space="preserve" xmlns="http://www.w3.org/2000/svg" xmlns:xlink="http://www.w3.org/1999/xlink"><g><path d="M22,4h-9.7741699l-1.2526855-3.6616211C10.9038086,0.1357422,10.7138672,0,10.5,0H2   C0.8969727,0,0,0.8969727,0,2v16c0,1.1030273,0.8969727,2,2,2h9.6533203l1.378418,3.6757813   C13.1049805,23.8706055,13.2915039,24,13.5,24H22c1.1030273,0,2-0.8969727,2-2V6C24,4.8969727,23.1030273,4,22,4z" fill="#303C42"/><path d="M1,18V2c0-0.5512695,0.4487305-1,1-1h8.1425781l6.1577148,18H2C1.4487305,19,1,18.5512695,1,18z" fill="#00ACC1"/><path d="M19.4003296,11c-0.2365112,0.7894287-0.9160767,2.0952148-1.8649902,3.2930298   c-0.5110474-0.5839233-0.927124-1.1244507-1.0719604-1.4810181c-0.1040039-0.2563477-0.3964844-0.3789063-0.6513672-0.2753906   c-0.2558594,0.1040039-0.3793945,0.3955078-0.2753906,0.6513672c0.1993408,0.4907837,0.7245483,1.1732788,1.3353271,1.866333   c-0.2094116,0.2197266-0.4260864,0.4249878-0.6525879,0.6191406L14.6205444,11H19.4003296z" fill="#E6E6E6"/><polygon fill="#00ACC1" points="12.7216797,20 15.8980713,20 13.6746216,22.5411377  "/><polygon opacity="0.2" points="12.7216797,20 15.8980713,20 13.6746216,22.5411377  "/><path d="M23,22c0,0.5512695-0.4487305,1-1,1h-7.3980713l2.7745361-3.1708984l-0.0071411-0.0062256   c0.0110474-0.0125732,0.0275879-0.0185547,0.0374146-0.0323486c0.09375-0.1308594,0.1186523-0.2998047,0.0664063-0.4521484   l-0.9087524-2.6563721c0.3388062-0.2658691,0.6650391-0.5657959,0.9793701-0.8942261   c0.9603271,1.0123901,1.9286499,1.9071045,2.1188354,2.0808716C19.7583008,17.956543,19.8793945,18,20,18   c0.1352539,0,0.2700195-0.0546875,0.3686523-0.1621094c0.1865234-0.2041016,0.1728516-0.5200195-0.0307617-0.706543   c-0.4680786-0.4286499-1.3305054-1.2530518-2.1286011-2.0968018C19.3474121,13.6314087,20.1936035,12.0231323,20.4256592,11H21.5   c0.2763672,0,0.5-0.2236328,0.5-0.5S21.7763672,10,21.5,10H18V9.5C18,9.2236328,17.7763672,9,17.5,9S17,9.2236328,17,9.5V10h-2.5   c-0.0738525,0-0.1425781,0.0179443-0.2056274,0.0466309L12.5679321,5H22c0.5512695,0,1,0.4487305,1,1V22z" fill="#E6E6E6"/><linearGradient gradientUnits="userSpaceOnUse" id="SVGID_1_" x1="8.7845306" x2="22.7072906" y1="8.7834015" y2="22.7061615"><stop offset="0" style="stop-color:#000000;stop-opacity:0.1"/><stop offset="1" style="stop-color:#000000;stop-opacity:0"/></linearGradient><path d="M15.8120117,12.5366211c0.2548828-0.1035156,0.5473633,0.019043,0.6513672,0.2753906   c0.1448364,0.3565674,0.5609131,0.8970947,1.0719604,1.4810181C18.4842529,13.0952148,19.1638184,11.7894287,19.4003296,11   h-4.7797852l1.5988159,4.6734619c0.2265015-0.1941528,0.4431763-0.3994141,0.6525879-0.6191406   c-0.6107788-0.6930542-1.1359863-1.3755493-1.3353271-1.866333C15.4326172,12.9321289,15.5561523,12.640625,15.8120117,12.5366211z    M17,9.5c0-0.0200806,0.0090942-0.0371094,0.0114136-0.0565796L12.5679321,5l1.7264404,5.0466309   C14.3574219,10.0179443,14.4261475,10,14.5,10H17V9.5z M19.9229736,12.3550415   c-0.4046021,0.8446045-1.0020142,1.802124-1.7136841,2.6795044c0.7980957,0.84375,1.6605225,1.6681519,2.1286011,2.0968018   c0.2036133,0.1865234,0.2172852,0.5024414,0.0307617,0.706543C20.2700195,17.9453125,20.1352539,18,20,18   c-0.1206055,0-0.2416992-0.043457-0.3374023-0.1313477c-0.1901855-0.1737671-1.1585083-1.0684814-2.1188354-2.0808716   c-0.3143311,0.3284302-0.640564,0.6283569-0.9793701,0.8942261l0.9087524,2.6563721   c0.0522461,0.1523438,0.0273438,0.3212891-0.0664063,0.4521484c-0.0098267,0.0137939-0.0263672,0.0197754-0.0374146,0.0323486   l0.0071411,0.0062256L14.6019287,23H22c0.5512695,0,1-0.4487305,1-1v-6.5679932L19.9229736,12.3550415z" fill="url(#SVGID_1_)"/><path d="M11.5,10h-4C7.2236328,10,7,10.2236328,7,10.5S7.2236328,11,7.5,11h3.4643555   C10.7211914,12.6938477,9.2602539,14,7.5,14C5.5703125,14,4,12.4296875,4,10.5S5.5703125,7,7.5,7   c0.8339844,0,1.6420898,0.2983398,2.2744141,0.8398438C9.984375,8.019043,10.2993164,7.996582,10.4794922,7.7851563   c0.1796875-0.2099609,0.1552734-0.5253906-0.0546875-0.7050781C9.6113281,6.3837891,8.5722656,6,7.5,6   C5.0185547,6,3,8.0185547,3,10.5S5.0185547,15,7.5,15s4.5-2.0185547,4.5-4.5C12,10.2236328,11.7763672,10,11.5,10z" fill="#303C42"/><linearGradient gradientUnits="userSpaceOnUse" id="SVGID_2_" x1="-1.8567469" x2="25.8567467" y1="5.5384927" y2="18.4615078"><stop offset="0" style="stop-color:#FFFFFF;stop-opacity:0.2"/><stop offset="1" style="stop-color:#FFFFFF;stop-opacity:0"/></linearGradient><path d="M22,4h-9.7741699l-1.2526855-3.6616211C10.9038086,0.1357422,10.7138672,0,10.5,0H2   C0.8969727,0,0,0.8969727,0,2v16c0,1.1030273,0.8969727,2,2,2h9.6533203l1.378418,3.6757813   C13.1049805,23.8706055,13.2915039,24,13.5,24H22c1.1030273,0,2-0.8969727,2-2V6C24,4.8969727,23.1030273,4,22,4z" fill="url(#SVGID_2_)"/></g><g/><g/><g/><g/><g/><g/><g/><g/><g/><g/><g/><g/><g/><g/><g/></svg>